{
	"asset":{
		"generator":"Khronos glTF Blender I/O v3.6.27",
		"version":"2.0"
	},
	"extensionsUsed":[
		"KHR_lights_punctual"
	],
	"extensionsRequired":[
		"KHR_lights_punctual"
	],
	"extensions":{
		"KHR_lights_punctual":{
			"lights":[
				{
					"color":[
						1,
						1,
						1
					],
					"intensity":79.57747154594767,
					"type":"point",
					"name":"Point"
				}
			]
		}
	},
	"scene":1,
	"scenes":[
		{
			"extras":{
				"t3dExportOnSave__":true,
				"t3dExportFilepath__":"",
				"t3dExportFormat__":2,
				"t3dPackTextures__":false,
				"t3dExportCameras__":true,
				"t3dExportLights__":true,
				"t3dRenderResolutionW__":640,
				"t3dRenderResolutionH__":360,
				"t3dSectorRendering__":false,
				"t3dSectorRenderDepth__":0,
				"t3dPlaybackFPS__":60,
				"t3dAnimationSampling__":true,
				"t3dAnimationInterpolation__":true,
				"t3dCollections__":{
					"Collection":{
						"objects":[
							"Camera"
						],
						"offset":[
							0.0,
							0.0,
							0.0
						]
					},
					"Enemy":{
						"objects":[
							"Enemy"
						],
						"offset":[
							3.0,
							0.0,
							0.0
						]
					},
					"Player":{
						"objects":[
							"Player"
						],
						"offset":[
							0.0,
							0.0,
							0.0
						]
					}
				},
				"t3dWorlds__":{
					"World":{
						"ambient color":[
							0.05087608844041824,
							0.05087608844041824,
							0.05087608844041824,
							1.0
						],
						"ambient energy":1.0
					}
				},
				"t3dCurrentWorld__":"World"
			},
			"name":"Assets",
			"nodes":[
				0,
				1
			]
		},
		{
			"extras":{
				"t3dExportFormat__":2,
				"t3dExportLights__":true,
				"t3dExportCameras__":true,
				"t3dExportOnSave__":true,
				"t3dPackTextures__":true,
				"t3dCameraResolution__":[
					1920,
					1080
				],
				"t3dExportFilepath__":"",
				"t3dRenderResolutionW__":640,
				"t3dRenderResolutionH__":360,
				"t3dSectorRendering__":false,
				"t3dSectorRenderDepth__":0,
				"t3dPlaybackFPS__":60,
				"t3dAnimationSampling__":true,
				"t3dAnimationInterpolation__":true,
				"t3dCurrentWorld__":"World"
			},
			"name":"Level",
			"nodes":[
				2,
				3,
				4,
				5,
				6,
				7,
				8
			]
		},
		{
			"extras":{
				"t3dCurrentWorld__":"World"
			},
			"name":"Level 2",
			"nodes":[
				9,
				10
			]
		}
	],
	"nodes":[
		{
			"extras":{
				"t3dBoundsType__":1,
				"t3dGameProperties__":[
					{
						"name":"player",
						"valueBool":1
					},
					{
						"name":"gameobject",
						"valueType":3,
						"valueString":"player"
					}
				],
				"t3dOriginalLocalPosition__":[
					0.0,
					0.0,
					0.0
				]
			},
			"mesh":0,
			"name":"Player"
		},
		{
			"extras":{
				"t3dBoundsType__":1,
				"t3dGameProperties__":[
					{
						"name":"solid",
						"valueBool":1
					},
					{
						"name":"enemy",
						"valueBool":1
					},
					{
						"name":"gameobject",
						"valueType":3,
						"valueString":"enemy"
					}
				],
				"t3dOriginalLocalPosition__":[
					3.0,
					0.0,
					0.0
				]
			},
			"mesh":1,
			"name":"Enemy",
			"translation":[
				3,
				0,
				0
			]
		},
		{
			"extras":{
				"t3dOriginalLocalPosition__":[
					0.0,
					0.0,
					0.0
				]
			},
			"mesh":2,
			"name":"Plane"
		},
		{
			"extensions":{
				"KHR_lights_punctual":{
					"light":0
				}
			},
			"extras":{
				"t3dOriginalLocalPosition__":[
					0.0,
					0.0,
					3.0
				]
			},
			"name":"Point",
			"rotation":[
				-0.7071068286895752,
				0,
				0,
				0.7071068286895752
			],
			"translation":[
				0,
				3,
				0
			]
		},
		{
			"extras":{
				"t3dOriginalLocalPosition__":[
					0.0,
					0.0,
					0.5
				],
				"t3dInstanceCollection__":"Player"
			},
			"name":"Player.001",
			"translation":[
				0,
				0.5,
				0
			]
		},
		{
			"extras":{
				"t3dOriginalLocalPosition__":[
					3.0,
					5.0,
					0.5
				],
				"t3dInstanceCollection__":"Enemy"
			},
			"name":"Enemy.002",
			"translation":[
				3,
				0.5,
				-5
			]
		},
		{
			"extras":{
				"t3dOriginalLocalPosition__":[
					-4.0,
					3.0,
					0.5
				],
				"t3dInstanceCollection__":"Enemy"
			},
			"name":"Enemy.001",
			"translation":[
				-4,
				0.5,
				-3
			]
		},
		{
			"extras":{
				"t3dGameProperties__":[
					{
						"name":"gameobject",
						"valueType":3,
						"valueString":"system"
					}
				],
				"t3dOriginalLocalPosition__":[
					10.0,
					3.0,
					22.5
				]
			},
			"mesh":3,
			"name":"System",
			"translation":[
				10,
				22.5,
				-3
			]
		},
		{
			"camera":0,
			"extras":{
				"t3dOriginalLocalPosition__":[
					0.0,
					-17.607133865356445,
					18.107133865356445
				]
			},
			"name":"Camera",
			"rotation":[
				-0.3826834261417389,
				0,
				0,
				0.9238795638084412
			],
			"translation":[
				0,
				18.107133865356445,
				17.607133865356445
			]
		},
		{
			"extras":{
				"t3dOriginalLocalPosition__":[
					0.0,
					0.0,
					0.0
				]
			},
			"mesh":4,
			"name":"Plane.001"
		},
		{
			"camera":1,
			"extras":{
				"t3dOriginalLocalPosition__":[
					1.039743185043335,
					-17.692123413085938,
					7.807597637176514
				]
			},
			"name":"Camera.001",
			"rotation":[
				-0.14977234601974487,
				0.011093268170952797,
				0.0016805286286398768,
				0.9886568784713745
			],
			"translation":[
				1.039743185043335,
				7.807597637176514,
				17.692123413085938
			]
		}
	],
	"cameras":[
		{
			"name":"Camera",
			"perspective":{
				"aspectRatio":1.7777777777777777,
				"yfov":0.39959652046304894,
				"zfar":1000,
				"znear":0.10000000149011612
			},
			"type":"perspective"
		},
		{
			"name":"Camera.001",
			"perspective":{
				"aspectRatio":1.7777777777777777,
				"yfov":0.39959652046304894,
				"zfar":1000,
				"znear":0.10000000149011612
			},
			"type":"perspective"
		}
	],
	"materials":[
		{
			"extras":{
				"t3dMaterialColor__":[
					0.0,
					0.16914395987987518,
					1.0,
					1.0
				]
			},
			"name":"Player",
			"pbrMetallicRoughness":{
				"baseColorFactor":[
					0.800000011920929,
					0.800000011920929,
					0.800000011920929,
					1
				],
				"metallicFactor":0,
				"roughnessFactor":0.5
			}
		},
		{
			"extras":{
				"t3dMaterialColor__":[
					1.0,
					0.0008560743881389499,
					0.0,
					1.0
				]
			},
			"name":"Enemy",
			"pbrMetallicRoughness":{
				"baseColorFactor":[
					0.800000011920929,
					0.800000011920929,
					0.800000011920929,
					1
				],
				"metallicFactor":0,
				"roughnessFactor":0.5
			}
		}
	],
	"meshes":[
		{
			"name":"Cube.002",
			"primitives":[
				{
					"attributes":{
						"POSITION":0,
						"NORMAL":1,
						"TEXCOORD_0":2
					},
					"indices":3,
					"material":0
				}
			]
		},
		{
			"name":"Cube.003",
			"primitives":[
				{
					"attributes":{
						"POSITION":4,
						"NORMAL":5,
						"TEXCOORD_0":6
					},
					"indices":3,
					"material":1
				}
			]
		},
		{
			"name":"Plane",
			"primitives":[
				{
					"attributes":{
						"POSITION":7,
						"NORMAL":8,
						"TEXCOORD_0":9
					},
					"indices":10
				}
			]
		},
		{
			"name":"Cube",
			"primitives":[
				{
					"attributes":{
						"POSITION":11,
						"NORMAL":12,
						"TEXCOORD_0":13
					},
					"indices":3
				}
			]
		},
		{
			"name":"Plane.001",
			"primitives":[
				{
					"attributes":{
						"POSITION":14,
						"NORMAL":15,
						"TEXCOORD_0":16
					},
					"indices":17
				}
			]
		}
	],
	"accessors":[
		{
			"bufferView":0,
			"componentType":5126,
			"count":24,
			"max":[
				0.5,
				0.5,
				0.5
			],
			"min":[
				-0.5,
				-0.5,
				-0.5
			],
			"type":"VEC3"
		},
		{
			"bufferView":1,
			"componentType":5126,
			"count":24,
			"type":"VEC3"
		},
		{
			"bufferView":2,
			"componentType":5126,
			"count":24,
			"type":"VEC2"
		},
		{
			"bufferView":3,
			"componentType":5123,
			"count":36,
			"type":"SCALAR"
		},
		{
			"bufferView":4,
			"componentType":5126,
			"count":24,
			"max":[
				0.5,
				0.5,
				0.5
			],
			"min":[
				-0.5,
				-0.5,
				-0.5
			],
			"type":"VEC3"
		},
		{
			"bufferView":5,
			"componentType":5126,
			"count":24,
			"type":"VEC3"
		},
		{
			"bufferView":6,
			"componentType":5126,
			"count":24,
			"type":"VEC2"
		},
		{
			"bufferView":7,
			"componentType":5126,
			"count":25,
			"max":[
				8,
				0,
				8
			],
			"min":[
				-8,
				0,
				-8
			],
			"type":"VEC3"
		},
		{
			"bufferView":8,
			"componentType":5126,
			"count":25,
			"type":"VEC3"
		},
		{
			"bufferView":9,
			"componentType":5126,
			"count":25,
			"type":"VEC2"
		},
		{
			"bufferView":10,
			"componentType":5123,
			"count":96,
			"type":"SCALAR"
		},
		{
			"bufferView":11,
			"componentType":5126,
			"count":24,
			"max":[
				1,
				1,
				1
			],
			"min":[
				-1,
				-1,
				-1
			],
			"type":"VEC3"
		},
		{
			"bufferView":12,
			"componentType":5126,
			"count":24,
			"type":"VEC3"
		},
		{
			"bufferView":13,
			"componentType":5126,
			"count":24,
			"type":"VEC2"
		},
		{
			"bufferView":14,
			"componentType":5126,
			"count":4,
			"max":[
				4,
				0,
				4
			],
			"min":[
				-4,
				0,
				-4
			],
			"type":"VEC3"
		},
		{
			"bufferView":15,
			"componentType":5126,
			"count":4,
			"type":"VEC3"
		},
		{
			"bufferView":16,
			"componentType":5126,
			"count":4,
			"type":"VEC2"
		},
		{
			"bufferView":17,
			"componentType":5123,
			"count":6,
			"type":"SCALAR"
		}
	],
	"bufferViews":[
		{
			"buffer":0,
			"byteLength":288,
			"byteOffset":0,
			"target":34962
		},
		{
			"buffer":0,
			"byteLength":288,
			"byteOffset":288,
			"target":34962
		},
		{
			"buffer":0,
			"byteLength":192,
			"byteOffset":576,
			"target":34962
		},
		{
			"buffer":0,
			"byteLength":72,
			"byteOffset":768,
			"target":34963
		},
		{
			"buffer":0,
			"byteLength":288,
			"byteOffset":840,
			"target":34962
		},
		{
			"buffer":0,
			"byteLength":288,
			"byteOffset":1128,
			"target":34962
		},
		{
			"buffer":0,
			"byteLength":192,
			"byteOffset":1416,
			"target":34962
		},
		{
			"buffer":0,
			"byteLength":300,
			"byteOffset":1608,
			"target":34962
		},
		{
			"buffer":0,
			"byteLength":300,
			"byteOffset":1908,
			"target":34962
		},
		{
			"buffer":0,
			"byteLength":200,
			"byteOffset":2208,
			"target":34962
		},
		{
			"buffer":0,
			"byteLength":192,
			"byteOffset":2408,
			"target":34963
		},
		{
			"buffer":0,
			"byteLength":288,
			"byteOffset":2600,
			"target":34962
		},
		{
			"buffer":0,
			"byteLength":288,
			"byteOffset":2888,
			"target":34962
		},
		{
			"buffer":0,
			"byteLength":192,
			"byteOffset":3176,
			"target":34962
		},
		{
			"buffer":0,
			"byteLength":48,
			"byteOffset":3368,
			"target":34962
		},
		{
			"buffer":0,
			"byteLength":48,
			"byteOffset":3416,
			"target":34962
		},
		{
			"buffer":0,
			"byteLength":32,
			"byteOffset":3464,
			"target":34962
		},
		{
			"buffer":0,
			"byteLength":12,
			"byteOffset":3496,
			"target":34963
		}
	],
	"buffers":[
		{
			"byteLength":3508,
			"uri":"data:application/octet-stream;base64,"
		}
	]
}
