{
	"asset":{
		"generator":"Khronos glTF Blender I/O v3.6.27",
		"version":"2.0"
	},
	"extensionsUsed":[
		"KHR_lights_punctual"
	],
	"extensionsRequired":[
		"KHR_lights_punctual"
	],
	"extensions":{
		"KHR_lights_punctual":{
			"lights":[
				{
					"color":[
						1,
						1,
						1
					],
					"intensity":79.57747154594767,
					"type":"point",
					"name":"Point"
				}
			]
		}
	},
	"scene":0,
	"scenes":[
		{
			"extras":{
				"t3dExportFormat__":2,
				"t3dExportLights__":true,
				"t3dExportCameras__":true,
				"t3dExportOnSave__":true,
				"t3dPackTextures__":true,
				"t3dCameraResolution__":[
					1920,
					1080
				],
				"t3dExportFilepath__":"",
				"t3dRenderResolutionW__":640,
				"t3dRenderResolutionH__":360,
				"t3dSectorRendering__":false,
				"t3dSectorRenderDepth__":0,
				"t3dPlaybackFPS__":60,
				"t3dAnimationSampling__":true,
				"t3dAnimationInterpolation__":true,
				"t3dCollections__":{
					"Collection":{
						"objects":[
							"Camera"
						],
						"offset":[
							0.0,
							0.0,
							0.0
						]
					}
				},
				"t3dWorlds__":{
					"World":{
						"ambient color":[
							0.05087608844041824,
							0.05087608844041824,
							0.05087608844041824,
							1.0
						],
						"ambient energy":1.0
					}
				},
				"t3dCurrentWorld__":"World"
			},
			"name":"Scene",
			"nodes":[
				0,
				1,
				2,
				3,
				4,
				5
			]
		}
	],
	"nodes":[
		{
			"extras":{
				"t3dOriginalLocalPosition__":[
					0.0,
					0.0,
					0.0
				]
			},
			"mesh":0,
			"name":"Plane"
		},
		{
			"extras":{
				"t3dGameProperties__":[
					{
						"name":"gameobject",
						"valueType":3,
						"valueString":"player",
						"valueColor":[
							1.0,
							1.0,
							1.0,
							1.0
						]
					}
				],
				"t3dBoundsType__":1,
				"t3dOriginalLocalPosition__":[
					0.0,
					0.0,
					0.5
				]
			},
			"mesh":1,
			"name":"Player",
			"translation":[
				0,
				0.5,
				0
			]
		},
		{
			"extensions":{
				"KHR_lights_punctual":{
					"light":0
				}
			},
			"extras":{
				"t3dOriginalLocalPosition__":[
					0.0,
					0.0,
					3.0
				]
			},
			"name":"Point",
			"rotation":[
				-0.7071068286895752,
				0,
				0,
				0.7071068286895752
			],
			"translation":[
				0,
				3,
				0
			]
		},
		{
			"extras":{
				"t3dGameProperties__":[
					{
						"name":"enemy",
						"valueBool":1,
						"valueReference":{},
						"valueReferenceScene":{}
					},
					{
						"name":"gameobject",
						"valueType":3,
						"valueString":"enemy"
					}
				],
				"t3dBoundsType__":1,
				"t3dOriginalLocalPosition__":[
					3.0,
					5.0,
					0.5
				]
			},
			"mesh":2,
			"name":"Enemy",
			"translation":[
				3,
				0.5,
				-5
			]
		},
		{
			"extras":{
				"t3dGameProperties__":[
					{
						"name":"gameobject",
						"valueType":3,
						"valueString":"enemy"
					},
					{
						"name":"enemy",
						"valueType":0,
						"valueBool":1,
						"valueInt":0,
						"valueFloat":0.0,
						"valueString":"",
						"valueReference":null,
						"valueReferenceScene":null,
						"valueColor":[
							1.0,
							1.0,
							1.0,
							1.0
						],
						"valueVector3D":[
							0.0,
							0.0,
							0.0
						]
					}
				],
				"t3dBoundsType__":1,
				"t3dOriginalLocalPosition__":[
					-4.0,
					3.0,
					0.5
				]
			},
			"mesh":2,
			"name":"Enemy.001",
			"translation":[
				-4,
				0.5,
				-3
			]
		},
		{
			"camera":0,
			"extras":{
				"t3dOriginalLocalPosition__":[
					0.0,
					-17.607133865356445,
					18.107133865356445
				]
			},
			"name":"Camera",
			"rotation":[
				-0.3826834261417389,
				0,
				0,
				0.9238795638084412
			],
			"translation":[
				0,
				18.107133865356445,
				17.607133865356445
			]
		}
	],
	"cameras":[
		{
			"name":"Camera",
			"perspective":{
				"aspectRatio":1.7777777777777777,
				"yfov":0.39959652046304894,
				"zfar":1000,
				"znear":0.10000000149011612
			},
			"type":"perspective"
		}
	],
	"materials":[
		{
			"doubleSided":true,
			"extras":{
				"t3dMaterialColor__":[
					0.0,
					0.16914395987987518,
					1.0,
					1.0
				]
			},
			"name":"Player",
			"pbrMetallicRoughness":{
				"baseColorFactor":[
					0.800000011920929,
					0.800000011920929,
					0.800000011920929,
					1
				],
				"metallicFactor":0,
				"roughnessFactor":0.5
			}
		},
		{
			"doubleSided":true,
			"extras":{
				"t3dMaterialColor__":[
					1.0,
					0.0008560743881389499,
					0.0,
					1.0
				]
			},
			"name":"Enemy",
			"pbrMetallicRoughness":{
				"baseColorFactor":[
					0.800000011920929,
					0.800000011920929,
					0.800000011920929,
					1
				],
				"metallicFactor":0,
				"roughnessFactor":0.5
			}
		}
	],
	"meshes":[
		{
			"name":"Plane",
			"primitives":[
				{
					"attributes":{
						"POSITION":0,
						"NORMAL":1,
						"TEXCOORD_0":2
					},
					"indices":3
				}
			]
		},
		{
			"name":"Cube",
			"primitives":[
				{
					"attributes":{
						"POSITION":4,
						"NORMAL":5,
						"TEXCOORD_0":6
					},
					"indices":7,
					"material":0
				}
			]
		},
		{
			"name":"Cube.001",
			"primitives":[
				{
					"attributes":{
						"POSITION":8,
						"NORMAL":9,
						"TEXCOORD_0":10
					},
					"indices":7,
					"material":1
				}
			]
		}
	],
	"accessors":[
		{
			"bufferView":0,
			"componentType":5126,
			"count":25,
			"max":[
				8,
				0,
				8
			],
			"min":[
				-8,
				0,
				-8
			],
			"type":"VEC3"
		},
		{
			"bufferView":1,
			"componentType":5126,
			"count":25,
			"type":"VEC3"
		},
		{
			"bufferView":2,
			"componentType":5126,
			"count":25,
			"type":"VEC2"
		},
		{
			"bufferView":3,
			"componentType":5123,
			"count":96,
			"type":"SCALAR"
		},
		{
			"bufferView":4,
			"componentType":5126,
			"count":24,
			"max":[
				0.5,
				0.5,
				0.5
			],
			"min":[
				-0.5,
				-0.5,
				-0.5
			],
			"type":"VEC3"
		},
		{
			"bufferView":5,
			"componentType":5126,
			"count":24,
			"type":"VEC3"
		},
		{
			"bufferView":6,
			"componentType":5126,
			"count":24,
			"type":"VEC2"
		},
		{
			"bufferView":7,
			"componentType":5123,
			"count":36,
			"type":"SCALAR"
		},
		{
			"bufferView":8,
			"componentType":5126,
			"count":24,
			"max":[
				0.5,
				0.5,
				0.5
			],
			"min":[
				-0.5,
				-0.5,
				-0.5
			],
			"type":"VEC3"
		},
		{
			"bufferView":9,
			"componentType":5126,
			"count":24,
			"type":"VEC3"
		},
		{
			"bufferView":10,
			"componentType":5126,
			"count":24,
			"type":"VEC2"
		}
	],
	"bufferViews":[
		{
			"buffer":0,
			"byteLength":300,
			"byteOffset":0,
			"target":34962
		},
		{
			"buffer":0,
			"byteLength":300,
			"byteOffset":300,
			"target":34962
		},
		{
			"buffer":0,
			"byteLength":200,
			"byteOffset":600,
			"target":34962
		},
		{
			"buffer":0,
			"byteLength":192,
			"byteOffset":800,
			"target":34963
		},
		{
			"buffer":0,
			"byteLength":288,
			"byteOffset":992,
			"target":34962
		},
		{
			"buffer":0,
			"byteLength":288,
			"byteOffset":1280,
			"target":34962
		},
		{
			"buffer":0,
			"byteLength":192,
			"byteOffset":1568,
			"target":34962
		},
		{
			"buffer":0,
			"byteLength":72,
			"byteOffset":1760,
			"target":34963
		},
		{
			"buffer":0,
			"byteLength":288,
			"byteOffset":1832,
			"target":34962
		},
		{
			"buffer":0,
			"byteLength":288,
			"byteOffset":2120,
			"target":34962
		},
		{
			"buffer":0,
			"byteLength":192,
			"byteOffset":2408,
			"target":34962
		}
	],
	"buffers":[
		{
			"byteLength":2600,
			"uri":"data:application/octet-stream;base64,"
		}
	]
}
